<svg xmlns="http://www.w3.org/2000/svg" width="1065.076" height="611.217" viewBox="0 0 300.58817 172.49904"><defs><filter id="a" x="-.06" width="1.12" y="-.111" height="1.222" color-interpolation-filters="sRGB"><feGaussianBlur stdDeviation="7.232"/></filter></defs><path d="M-1.094-.328l.055 164.276 301.003-3.532 1.02-161.38z" fill="#f8e4a3"/><path d="M50.503 30.832l.982 120.85-2.62-.327zM184.359 32.221l.982 120.851-2.62-.327zM173.031 31.893l.983 120.852-2.62-.328zM83.436 30.74l.982 120.85-2.62-.327zM73.283 28.938l.983 120.851-2.62-.327zM120.119 30.335l.982 120.851-2.62-.327zM141.6 32.464l.982 120.851-2.62-.327zM151.752 34.266l.983 120.85-2.62-.327zM130.272 32.137l.982 120.85-2.62-.327zM94.763 31.067l.983 120.851-2.62-.327zM104.916 32.868l.983 120.852-2.62-.328zM162.878 30.092l.983 120.851-2.62-.327zM194.512 34.023l.982 120.85-2.62-.327zM205.763 31.49l.983 120.85-2.62-.327zM215.916 33.29l.982 120.852-2.62-.328zM227.243 33.618l.983 120.852-2.62-.328zM237.396 35.42l.983 120.85-2.62-.327zM60.656 32.633l.982 120.851-2.62-.327zM279.482 36.11l.982 120.852-2.62-.328zM269.329 34.31l.982 120.85-2.62-.327zM258.001 33.982l.983 120.85-2.62-.327zM247.848 32.18l.983 120.851-2.62-.327zM290.733 33.577l.983 120.852-2.62-.328z" fill="#cd893c"/><path d="M11.648 77.52l16.686 57.05 245.582.663 15.51-89.36-35.954-12.002-27.568-22.973-8.806-12.253 4.212-2.297 73.076 36.468-4.247 118.247-284.324 1.71-.024-86.83 6.844-38.964L25.271-2.858l10.443.794 3.724 1.858L29.865 24.3 14.167 59.142z" transform="matrix(.92973 0 0 .90249 10.752 18.96)" opacity=".424" fill="#c38f8a" filter="url(#a)"/><path d="M.454 149.685l292.882-.947.727 65.914-293.618-.24z" fill="#dfb17d"/><path d="M39.175 30.504l.983 120.851-2.62-.328zM7.744 31.075l.982 120.85-2.62-.327zM17.896 32.876l.983 120.851-2.62-.327z" fill="#cd893c"/><path d="M-1.493-5.165l.224 90.232-.45-6.33 22.458-37.62 13.886-36.61 18.88 10.611 19.135 8.36 20.444 4.759 26.073 2.852 22.143.56 10.494-.79 10.494-.789 12.524-.983 13.376-3.542 12.397-4.74 11.118-7.724 10.076-8.259 22.408 17.358 19.726 11.52 36.942 14.017.038 64.83-16.934 29.065-9.631 26.536-3.81 28.758.18 17.842 30.35-.114.036-219.803zm.224 84.023c-.139 31.457-.496 101.66-.745 135.802l24.876-.07-.959-50.387-1.342-15.709-2.978-19.64-8.995-29.981z" fill="#a1332d"/><path d="M29.023 28.703l.982 120.85-2.62-.327z" fill="#cd893c"/><path d="M264.236 26.914l-21.5-11.571-9.266-7.904-13.402-12.5 4.01.001 4.126 4.268 4.618 4.55 8.621 7.408zM300.924 37.665l-6.22-1.402-22.874-9.975-16.87-10.94 19.73 10.618 17.727 8.045 8.635 1.333zM301.063 116.876c-2.786 3.996-7.741 11.32-10.474 16.713-3.923 7.74-7.722 17.19-10.371 26.835-2.65 9.645-4.321 21.466-5.185 30.84-.864 9.375-.7 23.473-.7 23.473l1.636-.02s.813-12.167 1.656-20.248c.843-8.082 1.25-16.835 3.457-26.836 2.208-10 6.388-24.409 10.37-32.843 2.701-5.718 7.196-13.29 9.75-16.723zM7.51-5.221L6.416 2.542-.967 45.908l-.891 18.545 5.596-43.19L9.77-4.933 9.8-5.22zm6.8 0L11 8.913l-12.687 53.58v8.992l.93-8.771 9.361-35.955 6.41-24.99 1.307-6.99zm6.811 0l-2.355 9.084-6.285 19.672-9.596 28.426-4.702 18.967v2.048l1.378-2.866 5.644-19.65 12.003-32.18 6.67-23.501zm8.384 0L26.04 7.692 18 28.368-1.833 72.55l.564 2.51 1.475-3.122 12.58-26.237 10.191-23.843 9.145-27.08z" fill="#7b0600"/><path d="M25.72 141.85l-1.231-.727-.84-.896-.838-2.964.223-1.12-.391 1.12.671 2.909.951 1.286 1.454 1.007z" fill="#f46969"/><path d="M-1.816 79.492s.552 6.094.802 6.603c.25.508 1.13 1.129 5.259 10.35 1.806 4.032 4.31 18.805 6.919 30.737 2.608 11.932 6.37 42.561 6.37 42.561l-1.077 44.873h2.172l.18-51.5s-3.314-29.19-6.116-39.502C9.89 113.302 6.802 97.1 4.933 93.83c-1.868-3.27-5.512-12.224-6.75-14.338zm.678 5.88l.257 4.294s4.076 13.633 5.771 20.545c1.696 6.913 4.807 38.781 5.068 39.815.262 1.035.784 27.666.784 27.666l1.568-1.81s-.031-15.972-.784-24.821c-.753-8.85-4.145-34.892-5.524-41.373-1.379-6.48-3.592-10.902-4.383-14.068-.866-3.46-2.757-10.247-2.757-10.247zm.11 5.807l.356 6.047 4.892 38.32 1.316 34.119.947 44.95h2.681l-.115-2.302-2.007-44.906-.502-20.572-.815-16.055zM231.487-5.094L238.344.83l13.045 8.78 16.558 7.777 17.059 6.523 13.798 3.01 2.336-.044v-2.509l-5.096.045-17.059-4.516-16.056-6.773-11.038-5.77-10.286-7.777-5.922-4.644zM301.203 117.845c-2.279 4.058-7.669 14.961-9.687 20.024-3.026 7.594-4.312 16.813-6.103 26.158-1.79 9.344-2.593 20.713-2.82 29.704-.158 6.228.408 15.857.774 20.902h1.425c.02-4.324.081-12.59.278-17.981.283-7.757.141-16.132 1.52-25.792 1.38-9.66 2.72-23.63 5.76-31.89 1.91-5.191 6.756-14.929 8.853-18.451z" fill="#7b0600"/><path d="M300.924 120.156c-1.855 4.005-6.133 16.42-7.226 20.324-2.409 8.604-2.697 16.726-3.903 26.164-1.205 9.438-1.297 20.835-.965 29.823.194 5.232 1.025 13.004 1.69 18.166h1.627c-.245-4.444-.548-10.95-.663-15.406-.2-7.759-.864-16.108-.088-25.836.775-9.727.682-22.178 3.202-31.865.971-3.734 4.9-17.436 6.465-20.746z" fill="#7b0600"/><path d="M301.063 118.989c-.713 2.08-1.082 6.493-1.552 8.293-2.063 7.91-3.997 31.204-4.617 40.698-.62 9.495-.01 20.875.879 29.825.477 4.812 1.601 11.834 2.545 16.828h1.723a577.942 577.942 0 0 1-1.45-14.236c-.679-7.732-1.856-16.025-1.683-25.781.173-9.757 1.294-40.142 3.288-48.714.247-1.065.542-2.155.867-3.249zM249.43-5.125l11.006 8.698 13.619 8.01 14.031 6.717 11.35 3.1 1.579-.12-.07-2.033-3.78-.43-14.031-4.65-13.206-6.977-9.08-5.942-6.738-6.494zM263.14-5.318l17.279 12.595 11.062 6.23 8.948 2.876.63.036-.138-1.846-2.282-.587-11.062-4.313-10.412-6.47-9.568-8.405zM276.982-5.201l10.593 8.018 8.5 4.82 5.085 1.81-.067-1.647-8.018-3.13-8-5.004-5.5-4.676zM177.484-5.285c.05-.036-.51.211-3.86 1.786-5.362 2.52-13.496 8.36-19.237 9.533-5.742 1.173-8.855.526-15.81.502-6.954-.025-18.842.4-25.902-.753-7.061-1.154-11.379-3.755-15.619-5.52-4.24-1.764-6.35-3.09-9.904-5.017a16.992 16.992 0 0 1-.876-.515h-4.255c1.113.989 2.485 1.974 4.56 3.024 5.957 3.014 16.435 8.043 24.19 9.533 7.753 1.49 14.052 1.47 21.902 1.506 7.85.034 18.657-.143 25.142-1.506 6.484-1.362 9.708-5.068 14.666-7.526 4.957-2.458 8.893-4.97 8.893-4.97l-4.17.068s.25-.124.28-.145zM31.23-5.27C34.38-3.115 45.139 4.174 51.446 7.57c7.382 3.973 13.47 6.889 22.578 10.058 9.11 3.17 21.898 6.634 32.111 8.206 10.214 1.572 18.51 1.551 28.85 1.588 10.34.036 24.574-.15 33.115-1.588 8.542-1.438 11.534-2.7 18.063-5.294 6.53-2.593 15.52-7.227 20.822-10.588 5.303-3.36 11.29-8.735 11.29-8.735L217.27-.108s-6.377 6.003-11.289 9-11.252 5.548-18.314 8.206c-7.06 2.658-16.521 6.173-24.083 7.411-7.562 1.238-11.662.555-20.822.53-9.16-.026-24.819.158-34.119-1.059-9.3-1.217-14.755-3.071-21.575-5.03-6.819-1.957-13.423-4.347-19.316-6.617-5.893-2.269-10.715-3.978-16.056-6.882-5.341-2.904-14.55-10.588-15.805-10.588-.27 0-.72-.055-1.231-.132H31.23zm16.456 0c3.558 2.625 8.299 4.692 11.411 6.474 6.164 3.528 6.453 6.017 14.3 9.032 7.847 3.014 21.647 8.042 31.86 9.532 10.214 1.49 18.51 1.471 28.85 1.506 10.34.034 24.574-.143 33.115-1.506 8.541-1.362 12.788-5.068 19.318-7.525 6.53-2.458 16.332-7.251 20.822-10.035 4.49-2.784 9.368-7.181 9.368-7.181l-2.527-.024s-3.758 3.737-7.845 6.2c-4.087 2.465-11.252 5.259-18.313 7.778-7.061 2.52-17.776 8.36-25.338 9.533-7.562 1.174-11.662.526-20.822.502-9.16-.024-24.818.401-34.119-.752-9.3-1.154-14.986-3.755-20.57-5.52-5.585-1.765-8.365-3.09-13.046-5.017-4.682-1.926-9.46-5.778-14.802-8.53-2.036-1.05-4.631-2.755-7.136-4.467h-4.526zm19.483 0c4.498 3.146 5.196 5.493 11.74 8.292 7.05 3.015 19.445 8.043 28.62 9.533 9.173 1.49 16.626 1.47 25.914 1.505 9.287.035 22.073-.142 29.745-1.505 7.672-1.362 11.486-5.068 17.351-7.526 5.865-2.457 18.703-10.034 18.703-10.034l-2.362-.03S188.234-.75 181.89 1.769c-6.343 2.52-15.967 8.36-22.76 9.533-6.792 1.174-10.475.526-18.703.502-8.228-.025-22.293.401-30.646-.753-8.354-1.153-13.462-3.754-18.479-5.519-5.016-1.765-7.512-3.09-11.717-5.017-2.92-1.338-5.886-3.602-9.03-5.784h-3.387z" fill="#7b0600"/><path d="M73.201 66.916c-4.34 0-7.835 4.35-7.835 9.754v19.687c0 5.404 3.495 9.754 7.835 9.754h4.052c-.02.313-.036.608-.063.949-.725 9.482-7.761 16.437-7.761 16.437s6.196-3.765 11.159-8.85c0 0 4.34-5.469 4.779-8.536h106.727c4.341 0 7.836-4.35 7.836-9.754V76.67c0-5.404-3.495-9.754-7.836-9.754z" fill="#fff" stroke="#7b0600" stroke-width=".628"/><path d="M301.063 116.694L293.78 95.95s-1.281-14.414-1.281-16.336c0-1.922 3.203-16.656 3.203-16.656l5.362-17.373" opacity=".99" fill="#a1332d"/><path d="M301.218 111.086s-4.042-12.263-4.32-12.82c-.279-.558-1.951-13.797-1.951-13.797l.975-7.943 3.902-19.928 1.394-4.877-1.255 7.664-2.23 11.427-1.532 12.96 2.09 14.354 2.927 12.124v1.393z" opacity=".99" fill="#7b0600"/><path d="M301.218 108.299l-2.927-21.043.14-9.894 1.393-13.378 1.394-10.59-1.255 19.37-.418 14.074z" opacity=".99" fill="#7b0600"/><g><path d="M172.007 178.566c-2.388-.817-4.006-1.384-6.529-1.116-2.576.273-5.77 1.123-7.404 2.521-1.791 1.533-2.795 5.119-3.366 7.342-3.229-.219-2.328-.155-3.229-.219-2.248-.087-4.724-.167-6.688.875-2.431 1.29-3.47 2.056-5.305 6.123-1.186 2.627-.381 7.767-.381 7.767l8.294-.818c.221-3.768-1.74-6.82 1.313-9.354 1.043-.866 2.55-1.123 3.92-1.312.75-.104 2.267.107 2.267.107s.29 2.914.595 4.383c.511 2.455 2.42 4.853 4.383 6.186 1.186.805 4.043 1.106 4.043 1.106.616 1.391.674 3.47.042 4.798 0 0-3.32.485-4.434 1.133-.8.466-3.244 1.652-3.822 2.353-1.32 1.6-1.657 4.453-1.657 4.453l29.753.103s-.919-3.084-2.075-4.155c-1.626-1.504-1.794-1.65-3.954-2.316-2.094-.646-6.458-1.312-6.458-1.312-.938-1.158-.094-4.99-.094-4.99s3.26-1.003 4.462-2.267c1.359-1.43 2.81-2.578 3.04-4.49.79-2.808-.243-7.625-.243-7.625s3.77-.142 4.897.636c2.852 1.97 3.622 9.124 3.622 9.124l7.193-2.402s-.48-3.324-1.341-4.822c-1.214-2.114-1.9-3.162-4.638-4.991-1.878-1.256-4.346-1.473-6.642-1.382-1.015.04-4.08 1.252-4.08 1.252s-.686-2.306-1.455-3.309c-1.026-1.336-2.39-2.821-4.03-3.382zM225.74 175.886c-.522-.085-1.412-.935-2.618-1.386-1.687-.63-3.388.518-4.002.557-.615.039-2.58.178-3.981.583-1.41.407-2.15-.06-2.853.41-.701.471-1.598.919-2.107 2.194-.51 1.276-1.687 1.381-2.05 2.383-.362 1.002-.19 2.756-.428 3.576-.238.82-1.26 1.6-1.224 3.607.013.767.66 1.1.541 1.815-.092.557-.26 1.43-.256 1.948.004.52.036 1.07.065 1.752.028.683 1.076.937 1.143 1.632.068.695-.146 2.36-.12 2.883.023 1.023 1.24 1.178 1.782 1.854.542.677 1.32 2.02 2.443 2.486 1.124.466 3.073-.155 3.664.882.539 1.523.148 4.845.148 4.845s-1.413-.26-5.591 1.562c-4.179 1.822-4.894 5.649-4.894 5.649l32.014-.104s-1.88-3.678-4.134-4.657c-2.254-.98-8.284-1.916-8.284-1.916s-.037-4.251.19-5.204c.226-.952 3.217-.398 4.005-3.084.218-.743 2.458-1.89 3.164-3.239.49-.935.342-2.1.617-3.125.268-.994 1.012-1.886 1.001-2.917-.009-.847-.817-1.531-.874-2.376-.053-.774.419-1.499.498-2.27.098-.944.23-1.936-.028-2.847-.237-.832-.765-1.571-1.338-2.207-.43-.479-1.2-.602-1.53-1.159-.283-.477-.044-1.142-.259-1.654-.262-.626-.652-1.255-1.21-1.619-.435-.284-.998-.267-1.508-.34-1.005.141-1.184-.372-1.986-.514z" fill="#5c5c31"/><path d="M156.84 189.938s.562 2.75 1.587 5.399c2.054 5.31 6.72 4.867 6.72 4.867.96-.05.56.531.56 1.682 0 1.15.094 6.372.094 6.372s-1.213 0-2.707.885c-1.493.885-3.36 3.806-3.36 3.806l.56 1.947-6.347-.089s.747-3.274.933-3.628c.187-.354 3.08-2.478 3.08-2.478l3.92-1.593 1.867-.443s.374-2.743.28-3.54c-.093-.796-.653-1.062-.653-1.062s-2.52-.177-3.453-.885c-.934-.708-4.014-2.567-4.2-4.425a984.744 984.744 0 0 0-.654-6.107s-3.332-.725-4.2-.177c-3.92 2.478-3.454 3.717-3.454 4.78v5.575s-1.055-6.537-.467-7.877c.934-2.124 4.2-3.363 4.2-3.363l4.668-.177z" fill="#4e4e12"/><path d="M139.106 201.886l4.947-.62s-2.365-2.191-2.8-3.894c-.436-1.702-.374-3.894.746-5.752.655-1.087 2.614-2.744 3.64-3.186 1.027-.443 5.694-.62 5.694-.62h3.827l1.774-.177s.126-1.495.653-2.92c.527-1.426 1.4-3.01 3.547-4.602 1.04-.772 3.08-1.553 5.227-1.77 2.706-.273 6.534.885 6.534.885s-3.454-2.39-7.28-2.124c-1.791.124-5.881 1.416-6.721 1.947-.84.53-2.427 2.566-2.894 3.628-.466 1.062-1.12 4.78-1.12 4.78s-4.76-.974-6.44-.62c-1.68.354-3.886.456-5.787 1.858-2.093 1.544-3.36 2.744-4.387 7.788-.338 1.66.84 5.399.84 5.399zM187.082 197.726l3.547-1.327s-1.306-4.337-2.613-5.664c-1.307-1.328-3.174-3.54-5.04-3.717-1.867-.177-5.6.088-5.6.088s.746 2.655.84 3.629c.092.973.186 3.451.092 4.602-.093 1.15-2.8 4.513-3.64 5.133-.84.62-1.773 1.15-1.773 1.15s3.453-1.681 4.293-2.92c.84-1.239 1.867-2.832 1.867-4.425s-.467-6.372-.467-6.372 4.107-.443 4.76.265c.654.708 2.428 2.301 2.521 3.983.093 1.681 1.213 5.575 1.213 5.575zM215.307 215l-10.031-.262s-.34-1.403 1.87-2.894c2.21-1.49 3.995-2.893 5.27-3.244a85.174 85.174 0 0 0 3.146-.965s.595-2.805.17-3.945c-.425-1.14-.85-.702-2.466-1.228-1.615-.526-2.465-.701-2.89-1.753-.425-1.053-1.53-.527-2.04-1.579s-1.19-1.753-.765-2.718c.425-.964.255-1.227-.255-2.104s-.255-3.332-.51-4.472c-.255-1.14-.85-1.49-.51-2.543.34-1.052.765-2.104 1.02-2.981.255-.877-.255-2.806.595-3.683.85-.876.765-1.227 1.955-2.542 1.19-1.316 2.04-2.543 3.57-2.543 1.53 0 1.36-1.403 2.89-1.228 1.53.176 1.616 1.052 2.636.614 1.02-.438 2.89-1.052 3.485-.701.595.35 3.316 2.192 3.91 2.104.596-.088 1.7-.175 2.55.35.85.527 0-.35-1.614.088-1.615.439-3.91-1.49-5.1-.964-1.19.526-3.316 1.227-5.271 1.14-1.955-.088-4.846.701-4.676 1.578.17.877-1.36 2.718-2.38 2.981-1.02.263-1.36 2.981-.765 3.77.595.79 0 2.017-.085 3.332s-.319 2.587.765 5.524c.353.956.765 2.28.595 3.157-.17.877.085 1.666 1.785 2.367 1.7.702 4.336.614 4.676 1.316.34.701 1.615.526 1.445 1.403-.17.876-.51 1.753-.51 3.507 0 .827.17 3.244.17 3.244s-.935.965-1.785 1.93c-.85.964-1.02 1.665-.765 2.717s-.085 1.228-.085 1.228zM225.252 202.9l-.085 5.086s.85 1.052 2.38 1.052c1.53 0 4.591.702 5.101 1.053.51.35 3.655 3.244 3.655 3.244s-3.4-2.981-5.44-2.981c-2.04 0-6.546-1.14-6.546-1.14v-3.42z" fill="#4e4e12"/></g><g transform="translate(.77 4.069)"><path d="M60.255 188.576l.67 13.613-.447 5.58-.892 2.796-39.192.016.137-10.624 2.009-1.562 26.78-3.57z" fill="#00450a"/><path d="M79.296 143.249l1.83-2.432 1.928-1.573 1.514-.337 2.506-.753 1.418-.752 1.555-.881.835-.148.427.28-.02.685-.826.858-2.269.95 1.957-.14 1.787-.563 2.465-.7 2.465-.7 2.027-.71 2.184-.301.036.438.64.007.226 1.32-1.985 2.241-5.161 3.166-4.8 1.734-4.585.673-1.279.845-1.138 2.504-5.808-2.325z" fill="#ffc5c0"/><path d="M82.162 146.543l2.485-1.48 2.473-.736 2.856-.253 2.624-.382 2.266-2.466.996-2.28-.208-.516-.882-.18 1.002-.127.386.477-.19 1.259-1.632 2.794-1.5 1.267-3.097 1.245-3.918.489-3.088 1.825z" fill="#f46969"/><path d="M44.5 147.136l6.363 1.492 7.674 5.162 6.478 6.946 1.56-2.156 4.12-9.655 5.126-6.298 5-3.4-.378 1.134.67 3.007 1.812 4.036L83.951 150l-7.574 10.737-7.89 17.538-4.797 1.315-2.487 9.307-5.111 4.371-7.253 3.337-13.767 2.296-12.46.015-3.763-15.803-1.142 3.07-.973 3.39 2.548 7.67 5.038 5.969-6.962 5.842-10.985-11.072-.663-12.794 3.368-16.258 6.459-11.11 5.523-4.638L27.773 150z" fill="#add47d"/><path d="M24.074 170.847l-.525 10.357.925 10.27 1.72 3.97 3.03 3.577-6.209 1.72-3.924-6.182-.517-10.637 2.056-6.604 1.322-4.89-.524-5.946-.003-3.708-1.455-2.381 2.248 2.645.533 2.783.132 3.307 1.455-1.059 1.728-1.575-1.595 2.237z" fill="#677d4d"/><path d="M30.935 210.497l-10.578.076.126-3.463 4.169-3.72-4.225-4.456.772-1.244 4.944 1.363 3.174-.402 8.49.2 6.624-1.453-8.725 2.908-4.039 2.423-1.292 3.07z" fill="#003206"/><g transform="translate(-.44 1.144)"><ellipse ry="15.178" rx="11.966" cy="176.521" cx="44.521" fill="#f7cb46"/><ellipse ry="12.802" rx="10.093" cy="176.301" cx="44.458" fill="#e9241d"/><ellipse ry="10.426" rx="8.157" cy="176.389" cx="44.609" fill="#f7cb46"/><ellipse ry="8.227" rx="6.134" cy="176.389" cx="44.609" fill="#e9241d"/><ellipse ry="5.983" rx="4.06" cy="176.433" cx="44.659" fill="#f7cb46"/><ellipse ry="3.607" rx="2.448" cy="176.477" cx="44.725" fill="#e9241d"/></g><path d="M45.325 147.21l5.475 13.866 1.732 14.27.313 8.76-.675 8.663 2.482-.799.793-16.596-2.12-14.424-5.175-13.732z" fill="#8d5600"/><path d="M41.076 121.532l-16.41 2.97.715 15.242 8.204 12.807L45 151.23l1.07-15.51-1.664-7.136z" fill="#ffc5c0"/><path d="M43.308 122.313l-3.84-5.447-2.946-1.429h-4.465l-4.376 1.072-3.571 2.41-1.43 3.304-.624 3.661.357 1.876 15.27-4.376z" fill="#261d1d"/><path d="M34.235 115.461l-2.74.112-3.972 1.007-2.797 1.678-1.399 1.958-1.343 4.14-.055 2.573 4.81-1.007-.28-3.972 1.455-2.629 2.238-1.622 2.014-1.287 3.58-.895z"/><path d="M29.356 124.643l10.05-2.145 6.29-.35 3.156-.018 2.261.542.368.818-.193.93-1.111.985-2.846 1.377-3.248.932-1.57-3.234-.897-.722-1.512-.163-9.435 2.223-5.767 2.271-.524 2.447-3.844.349-1.24-.157-.682-.717.237-1.216 1.021-.937 2.936-1.341z" fill="#3d3929"/><ellipse cx="5.21" cy="135.328" rx="1.66" ry="3.145" transform="rotate(-12.021)" fill="#fffffe"/><ellipse cx="5.277" cy="136.016" rx="1.161" ry="1.688" transform="rotate(-12.021)" fill="#8e5121"/><ellipse cx="36.504" cy="131.296" rx="1.66" ry="3.145" transform="rotate(-1.076)" fill="#fffffe"/><ellipse cx="34.78" cy="132.498" rx="1.161" ry="1.688" transform="rotate(-1.821)" fill="#8e5121"/><path d="M39.117 133.684s-.747-.383-1.15-.383c-.405 0-.886.205-1.151.383-.266.179-.46.537-.46.537s.136 1-.077 1.457c-.214.458-.647.903-1.15 1.074-.504.171-1.17.097-1.611-.153-.442-.251-.81-.622-.844-1.15-.034-.53.386-1.203.844-1.535.457-.332 1.137-.386 1.61-.307.473.08 1.354.67 1.354.67" fill="none" stroke="#000" stroke-width=".5"/><path d="M45.845 148.022l4.8 11.844.714 2.655 1.736 14.601.102 7.045-.51 8.27 2.041-.816-.102.715-2.859.817-.102-1.226.817-10.823-.817-10.21-.919-8.475-.817-3.063-4.492-10.925z" fill="#502d16"/><path d="M24.927 134.068l.154 6.75 1.72 5.237 3.572 4.12 5.648 3.806 4.141 1.227-.23-2.3.997 1.227.997-2.531.384 1.61-.46 1.994 2.07-2.53 3.02-5.648.094-5.822-.988-5.322-1.714 7.616s-1.38 1.687-1.764 1.687c-.383 0-1.764-.46-1.764-.46l-.23-1.074-1.687.307.383 1.304-.92 1.15h-1.688l-4.856-1.28-4.654-5.546-1.304-4.832-.384-3.912h-.997z" fill="#fff"/><path d="M39.24 139.131l.753 1.257 1.928-.066 1.745-.483 4.081.915 4.362-1.208.81-.946-3.286.972-3.372-1.259-4.466-.369-1.745.483-.648.563z" fill="#fff"/><circle r="1.25" cx="42.169" cy="158.947" fill="#502d16"/><ellipse cx="41.96" cy="158.443" rx="1.25" ry="1.25" fill="#a1332d"/><path d="M25.132 150.61l5.555 13.094 2.513 14.154.794 8.73-.397 9.259h3.175l-.662-18.122-3.439-16.666-5.026-11.375z" fill="#8d5600"/><path d="M40.286 158.984l-5.814 6.004-.665-6.49 6.369-.081z" fill="#a1332d"/><path d="M40.897 140.797l-1.875.893-2.59.178.715.804 1.428.625 1.34-.09.803-.803z"/><path d="M37.476 142.835l1.083.541 1.457-.167.625-.79-1-.126-1 .084z" fill="#b63a3a"/><path d="M39.933 134.923l1.207.75.375.874-.208 1-1.041.832-1.5.292-1.54-.125 1.25.708 1.54.083 1.457-.75.375-1.457-.541-1.582z" fill="#f46969"/><ellipse cx="6.292" cy="136.194" rx=".675" ry="1.013" transform="matrix(.97652 -.21544 .20131 .97953 0 0)"/><ellipse cx="40.306" cy="131.69" rx=".675" ry="1.013" transform="matrix(1 -.00434 -.0101 .99995 0 0)"/><path d="M33.812 126.179l-.125.874-.5.417-1.582.166-1.083.625-1.332 1.29-.5 1.333s0-2.207.042-2.373c.041-.167 1.04-1.791 1.04-1.791l1.291-.5 2-.374zM35.82 125.975l.634.615.65.024 1.353-.837 1.239-.168 1.844.205 1.21.748s-1.35-1.745-1.485-1.851c-.135-.107-1.92-.78-1.92-.78l-1.326.395-1.81.927z" fill="#fff"/><path d="M55.026 158.149l4.497 5.952 2.91 7.143.534 7.279-.133 3.43s3.832-.26 3.964-.788c.132-.53 2.116-3.44 2.116-3.44l-4.22-1.075-2.38-7.458-2.38-5.623z" fill="#677d4d"/><path d="M24.887 133.542L24.351 132l-1.073-.403-.872.269-.402 1.542 1.006 2.95 1.207 1.14.67.201z" fill="#ffc5c0"/><path d="M27.96 126.992l-1.542 1.61-.268 2.212.871 4.358-1.006-1.61.805 5.23-1.676-3.352-.862-4.848.258-2.192 1.14-.738z" fill="#fff"/><path d="M22.717 133.461l.167-1.055.61.11 1.167 1.778.778 1.5-.167.555-1.5-1.166-.333-1.5-.277-.555z" fill="#f46969"/><path d="M46.823 147.291l-1.889 4.67-2.221 3.107-1.278.888.223-1.388.11-1.611-.61 2.11-.667-.777.445 1.222-1.056.333-3.943-1.11-5.333-3.778-3.332-3.61-.944-1.61-1.389-4.61-.111-5.888-.833-5.61.444-1.167.611-.666 1.722-.445-1.722 1.333.056 1.778.722 2.055-1.111-1.333.722 2.888.111 5.332.555 3.555.87 2.821 2.662 3.789 5.86 3.955 4.05 1.266.167-2.389 1.11 1.278 1.056-2.333.389 1.833-.445 2 2.222-2.61z" fill="#a3a0a0"/><path d="M38.81 139.437l-.46 1.457-2.225.613-2.147.154-4.372 2.3-5.369.384-1.227-.613 4.065-.23 3.451-2.378 4.986-1.918 2.147-.153.92.307z" fill="#fff"/><path d="M48.47 199.66l.162 5.493-.97 5.334-3.953.01.56-4.213-.323-5.655.808 4.524-.162 4.606h2.1l1.132-4.444z" fill="#003206"/><path d="M36.677 193.203l-.001 2.094.484 2.262-.969 1.94-2.1-.162-.97-1.454v-2.262l.644.157-.16-2.58-1.453 1.13-.646 3.393.969 2.1 1.616 1.454 2.908-.161 1.292-2.1.162-2.747-.485-1.939z" fill="#e1d04a"/><path d="M43.552 157.12l7.002-6.607.8 7.143-7.669.09z" fill="#a1332d"/><path d="M22.887 203.398l-2.971 1.32-2.42 2.972.072.094 5.87 2.107.459.656h8.835l.022-.1.11-1.628-.44-1.28-.97-.87-.667-.643 1.123.563 1.326-.212.222-.547-.366-.548-.812-.205-.988-.616-1.99-.704-3.108-.35-3.307-.01z" fill="#ffc5c0"/><path d="M19.004 205.937l-.524.786-1.573 1.049 2.49.655L23.33 210l.432.547h1.051l-.96-1.727-2.358-1.834-2.49-1.05zm10.748 2.982l-.727.333.14 1.295h.413l.174-1.628zm1.576.258l-.588.588-.03.782h.47l.148-1.37zm-4.519.484l.208.886h.21l-.418-.886z" fill="#f46969"/><path d="M38.825 139.626l-.111 1.167-.556.61-2.055.445-1.722.111-3.055 1.611-2.943.778-4.166.11-1.166-.721 1.333.5 4.332-.223 3.333-1.333 2.11-1.222 1.222-.055 1.833-.278 1-.5zM39.491 139.238l.667.888 1.222.167 2.61-.5 3.555.778 3.11-.667 1.278-.5.944-.722-.944 1.111-3.999 1.222-2.722-.444-2.11-.39-2.444.445-.944-.222-.39-.722zM33.826 126.185l.055.778-.5.666-.888.167-1.389.444-1.388 1.055-1 2.167.055-.834.5-1.444 1.556-1.166.888-.444 1.5-.278.444-.5zM35.746 125.81l-.056.336.615.727h.671l1.12-.448 1.174-.615 1.678.056 1.79.783-1.23-.95-2.126-.28-2.014.783-.783.111z" fill="#a3a0a0"/><path d="M24.67 124.076l-2.965-8.503-2.965-4.196-3.356-2.573-1.679-.671.504 1.846.783 1.958 1.958 1.398-1.902-.67.447 1.342 1.287 2.629 3.245 3.636 2.405 2.405 1.902 1.623.615.839z" fill="#1c4e1c"/><path d="M38.98 133.65s.247.917.595 1.235c.348.317.878.542 1.368.504.49-.038 1.03-.35 1.313-.73.284-.38.462-.838.3-1.309-.164-.47-.766-.898-1.275-1.016-.51-.118-1.107.087-1.48.33-.374.244-.907 1.082-.907 1.082" fill="none" stroke="#000" stroke-width=".467"/><path d="M24.548 124.478l-6.423-11.087-4.487-5.455 4.4 6.071 6.422 10.734z" fill="#e9241d"/><path d="M32.367 194.174l-.408 3.675.658 1.841 1.806 1.456 2.335-.233 1.531-1.94-.919 2.348-2.552.51-1.736-.612-.919-1.327-.613-2.45z" fill="#5c5c31"/><path d="M25.22 150.575l5.412 12.048.714 3.063 2.144 13.07.817 7.045-.102 5.412v4.186h2.553l-.102.715-3.063-.102v-2.961l.204-5.31-.409-5.411-1.94-12.968-1.531-7.045-5.105-11.232z" fill="#502d16"/><path d="M44.28 197.081l4.026-.374 5.991-1.966 5.336-4.213 1.685-1.498 1.217-5.242-1.872 4.119-3.37 3.464-4.4 3.276-4.962 1.966z" fill="#677d4d"/><path d="M54.634 190.392l-.15 1.495.851 2.355-.902 1.88-1.955-.156-.902-1.41v-2.195l.702-.073-.01-2.279-1.594.697-.602 3.693.902 2.037 1.504 1.411 2.707-.157 1.203-2.037.15-2.665-.45-1.881z" fill="#e1d04a"/><path d="M50.644 190.549l-.408 3.676 1.238 2.783 1.516.731 2.045-.451 1.531-1.94-.919 2.348-2.552.51-1.736-.612-.92-1.327-.612-2.45z" fill="#5c5c31"/><path d="M33.797 158.233l-.307 1.94.715 5.922 6.024-7.045-5.717 5.615zM50.44 150.779l1.021 7.147-7.658-.102 6.943-.612z" fill="#502d16"/><path d="M20.575 153.488l-4.728 4.45-4.471 7.227-2.68 7.12-2.207 13.66 1.832 8.784 3.567 6.218 5.486 4.572 1.346.856-.516 1.646 1.069.448-1.518 1.153s-2.188-.442-4.695-2.634c-2.507-2.191-5.333-6.132-5.562-6.315-.457-.366-1.646-4.572-1.92-4.938-.274-.366-.731-9.968-.731-9.968l1.097-4.48 2.377-11.98 4.847-8.778 2.926-3.75z" fill="#677d4d"/><path d="M16.763 189.418l-1.297-1.961-3.277-1.704-3.277.131 4.194-.917 2.36.524 2.2.827-.497 1.663zM71.037 148.4l-3.009 7.47-1.414 2.982-1.286 3.146-.485 2.359-.085 3.703-.973-3.31-.088-1.67.717-1.583 1.078-1.577 2.625-6.146zM81.39 153.643l-4.98 7.208-4.063 9.437-3.8 8.126-1.967 2.752-1.572-4.063 2.359-.655 1.835-3.54 5.504-10.615 4.326-6.16z" fill="#677d4d"/><path d="M65.158 161.02l-3.296-3.708-3.145-3.538 4.325 6.29 1.18 3.67z" fill="#677d4d"/><path d="M18.22 208.12l-.528 1.527 1.234-.411.53-.764z" fill="#465237"/><path d="M30.858 206.238l-2.057-1.41-1.352-.412 2.175.294 1.528 1.352.823.353h1.175l-1.117.235zM91.425 144.44l3.47-1.211 4.445-2.521 1.321-1.228-.068-.734-1.021.038-2.425.955-1.82.696 1.432-.19 2.296-1.052 1.062-.061-.1.397-1.927 1.454-4.118 1.737z" fill="#f46969"/><path d="M101.002 136.064l-.03.33-.376.332-1.004.337-3.951 1.387 3.602-1.146 1.781-.485.615-.01.392.248-.17.359.017-.05.015-.048-.585.129-1.416.356-3.209 1.085 2.62-.61 1.835-.564.27.045.228.26-.125.14-.167.354-.831.719 1.265-.795.15-.767.497-.464-.259-.497-.4-.17-.447-.043zM91.305 136.74l-.062.588-.549.81-1.405.579-.894.465-.769.859-.995.87-1.398.615-2.082.46-.418-.33.523.115 2.08-.65 1.722-.878 1.297-1.244 1.36-.606 1.134-.595.317-.645z" fill="#f46969"/><path d="M84.043 146.719l.161 1.562-.323 1.698-1.003-2.61c.22-.233 1.165-.65 1.165-.65zM80.702 139.337l1.286.917-.722.638-.598.942-.217-1.878z" fill="#677d4d"/><path d="M83.809 144.166l1.2-1.51 1.494-.617 1.96-.24 2.244.176 1.158.032 1.831-2.13.876-1.247-1.78 1.927-1.648 1.226-2.558-.3-3.046.097-1.271.76-.621 1.095zM93.792 137.876l-2.72.82-.906.302-1.77.043-1.597 1.597-1.079.432 2.331-.863 1.424-.389 1.338-.82 1.295-.432z" fill="#f46969"/></g><g><path d="M257.68 65.332c-2.117.442-6.818-1.007-10.616-2.8-3.797-1.792-9.176-4.752-11.536-8.307-2.36-3.555-3.076-7.498-2.544-11.096.532-3.597 3.095-7.18 5.177-9.06 2.081-1.878 3.23-2.576 5.843-2.587 2.613-.01 6.033 1.543 8.522 3.693 2.489 2.151 4.128 5.752 5.501 8.883 1.374 3.131 2.486 6.282 2.707 9.694.221 3.412-.454 8.544-1.489 10.342-1.035 1.797.552.797-1.565 1.238z" fill="#2fa034"/><path d="M241.9 34.574c-1.466 1.218-2.336 3.792-2.412 5.873-.076 2.08.482 4.03 1.911 5.837 1.43 1.806 4.319 3.75 6.552 4.003 2.233.253 4.133-.258 5.505-1.842 1.372-1.585 1.59-4.494 1.208-6.661-.381-2.168-1.863-4.175-3.239-5.56-1.376-1.386-2.84-2.407-4.545-2.69-1.705-.282-3.514-.179-4.98 1.04z" fill="#5fbb63"/><path d="M244.495 36.269c.286-1.279 1.51-1.505 2.648-1.42 1.139.086 2.535 1.177 3.08 2.303.544 1.126.75 3.002-.103 3.66-.854.656-1.666.059-2.733-.643-1.067-.702-3.179-2.622-2.892-3.9z" fill="#c2eec4"/><path d="M233.355 41.62c-.542 1.537-.745 2.154-.7 3.968.044 1.814.408 4.48 1.523 6.689 1.115 2.208 2.495 3.905 5.21 6.046 2.716 2.14 8.307 4.76 11.348 5.848 3.041 1.088 5.075 1.335 6.468 1.389 1.393.053 2.248-.215 1.735-.235-.514-.02-5.86-1.834-6.156-2.027-.295-.193-8.085-4.425-10.768-6.734-2.683-2.308-4.308-4.633-5.557-6.483-1.249-1.85-1.457-3.478-1.802-4.974s-.624-2.134-.325-3.69c.3-1.557.695-2.611 1.794-4.833-1.682 1.543-2.228 3.5-2.77 5.036z" fill="#3e7c41"/><path d="M252.085 34.778s2.653 2.086 4.097 4.954c1.906 3.786 4.01 9.343 4.48 12.109.661 3.873.168 7.887-.325 9.574-.493 1.687-1.466 4.108-1.466 4.108l-4.45-1.078s1.135-.131 2.053-1.801c.92-1.67 1.99-4.64 1.99-4.64s.785-3.069.727-5.117c-.057-2.047-2.08-8.702-2.888-10.804-.809-2.102-3.828-6.7-4.218-7.305z" fill="#3e7c41"/><path d="M23.87 74.657c-.868-1.981-.416-6.88.558-10.965.973-4.084 2.764-9.957 5.758-12.998 2.993-3.04 6.706-4.551 10.336-4.77 3.63-.219 7.663 1.553 9.93 3.204 2.266 1.65 3.186 2.631 3.733 5.186.547 2.555-.27 6.222-1.862 9.1-1.593 2.877-4.78 5.222-7.562 7.21-2.782 1.987-5.637 3.724-8.93 4.641-3.294.918-8.456 1.312-10.428.669-1.972-.643-.666.703-1.533-1.277z" fill="#ec5a4d"/><path d="M49.963 50.597c-1.494-1.184-4.192-1.506-6.244-1.153-2.052.353-3.846 1.3-5.32 3.07-1.473 1.77-2.781 4.998-2.57 7.235.212 2.237 1.102 3.992 2.934 5.009 1.833 1.017 4.725.631 6.768-.187 2.043-.819 3.702-2.682 4.775-4.313 1.073-1.632 1.772-3.275 1.698-5.001-.074-1.727-.548-3.476-2.041-4.66z" fill="#ed7e74"/><path d="M47.871 53.112c1.264-.344 2.036.632 2.493 1.678.456 1.046.145 2.79-.596 3.798-.74 1.008-2.301 2.068-3.282 1.62-.98-.447-.831-1.444-.71-2.715.122-1.271.831-4.036 2.095-4.38z" fill="#ffc5c0"/><path d="M42.075 45.977c-1.616-.214-2.261-.287-4.028.13-1.766.416-4.3 1.32-6.232 2.865-1.931 1.546-3.309 3.245-4.846 6.343-1.537 3.097-2.95 9.107-3.39 12.307-.44 3.2-.264 5.241-.03 6.616.234 1.374.672 2.156.586 1.649-.086-.507.59-6.112.72-6.44.127-.33 2.667-8.823 4.375-11.923 1.708-3.1 3.648-5.168 5.203-6.771 1.554-1.603 3.104-2.141 4.497-2.786 1.393-.646 1.96-1.05 3.545-1.076 1.585-.027 2.698.143 5.098.762-1.856-1.33-3.883-1.462-5.498-1.676z" fill="#ca483d"/><path d="M16.007 66.143c-1.793-1.208-4.033-5.589-5.397-9.56-1.364-3.971-2.994-9.891-2.092-14.061.902-4.17 3.229-7.435 6.178-9.562 2.95-2.127 7.305-2.79 10.103-2.608 2.798.181 4.1.518 5.93 2.383 1.83 1.866 3.101 5.4 3.296 8.683.194 3.284-1.243 6.97-2.53 10.138-1.285 3.168-2.768 6.163-5.059 8.7-2.29 2.538-6.44 5.633-8.45 6.145-2.01.513-.187.951-1.98-.258z" fill="#ecb64d"/><path d="M52.622 62.9s-1.497 3.026-4.007 5.028c-3.313 2.643-8.32 5.844-10.929 6.874-3.655 1.443-7.684 1.785-9.436 1.65-1.753-.136-4.322-.59-4.322-.59l.14-4.577s.361 1.083 2.185 1.64c1.824.555 4.95.992 4.95.992s3.164.138 5.156-.34c1.992-.477 8.09-3.824 9.98-5.048 1.891-1.223 5.77-5.123 6.283-5.63z" fill="#ca483d"/><path d="M27.046 33.383c-1.896-.2-4.348.971-5.892 2.368-1.544 1.396-2.553 3.156-2.85 5.44-.298 2.284.324 5.71 1.7 7.487 1.376 1.777 3.067 2.783 5.16 2.661 2.092-.122 4.329-1.995 5.616-3.78 1.288-1.785 1.693-4.246 1.726-6.199.033-1.952-.256-3.714-1.243-5.133-.986-1.419-2.322-2.643-4.217-2.844z" fill="#f2d7a1"/><path d="M27.64 36.425c1.116-.686 2.132.033 2.865.909.732.875.924 2.636.497 3.812-.428 1.175-1.627 2.632-2.694 2.478-1.067-.154-1.204-1.152-1.445-2.406-.242-1.254-.339-4.107.777-4.793z" fill="#fff6e5"/><path d="M16.036 32.174c-1.48.683-2.063.968-3.332 2.265-1.27 1.297-2.926 3.417-3.731 5.756-.805 2.339-1.059 4.512-.7 7.95.36 3.44 2.382 9.273 3.723 12.212 1.341 2.939 2.583 4.568 3.516 5.604.933 1.036 1.722 1.462 1.378 1.08-.344-.383-2.773-5.48-2.84-5.826-.068-.346-2.468-8.88-2.684-12.413-.217-3.533.316-6.318.77-8.504.456-2.186 1.477-3.47 2.309-4.76.831-1.291 1.093-1.936 2.418-2.807 1.325-.87 2.356-1.322 4.715-2.084-2.28-.13-4.063.843-5.542 1.527z" fill="#bd8f34"/><path d="M34.002 40.824s.355 3.357-.693 6.392c-1.384 4.007-3.9 9.39-5.553 11.656-2.315 3.175-5.536 5.62-7.089 6.444-1.552.823-3.967 1.814-3.967 1.814l-2.33-3.94s.885.72 2.723.214c1.838-.506 4.712-1.81 4.712-1.81s2.747-1.577 4.175-3.046c1.427-1.47 4.786-7.56 5.728-9.606.943-2.045 2.133-7.416 2.294-8.118z" fill="#bd8f34"/><path d="M249.16 67.178c-.443-1.233.47-2.08 1.477-2.616 1.008-.537 2.77-.363 3.833.297 1.063.66 2.242 2.133 1.872 3.145-.37 1.013-1.375.942-2.652.92-1.277-.021-4.089-.513-4.53-1.746z" fill="#ffaca5"/><path d="M274.908 73.12c-2.162.032-6.502-2.285-9.89-4.766-3.387-2.482-8.106-6.41-9.747-10.349-1.64-3.938-1.594-7.946-.388-11.377 1.206-3.43 4.404-6.461 6.804-7.91 2.401-1.45 3.662-1.916 6.229-1.43 2.567.487 5.63 2.661 7.664 5.246 2.035 2.584 2.96 6.431 3.713 9.766.754 3.335 1.247 6.64.815 10.032-.431 3.392-2.07 8.302-3.428 9.87-1.357 1.568.39.887-1.772.919z" fill="#ecb64d"/><path d="M265.263 39.923c-1.671.918-3.014 3.28-3.485 5.308-.47 2.028-.293 4.05.767 6.094 1.06 2.045 3.527 4.502 5.672 5.175 2.144.673 4.106.533 5.754-.762 1.649-1.295 2.415-4.11 2.453-6.31.037-2.2-1.036-4.453-2.123-6.074-1.088-1.622-2.332-2.903-3.952-3.504-1.62-.602-3.416-.844-5.086.073z" fill="#f2d7a1"/><path d="M271.067 90.56c-1.907 1.02-6.826.95-10.974.3-4.149-.652-10.144-1.98-13.408-4.726-3.265-2.748-5.062-6.33-5.563-9.932-.501-3.602.95-7.762 2.418-10.15 1.47-2.389 2.375-3.382 4.88-4.127 2.504-.745 6.223-.217 9.216 1.146 2.994 1.363 5.58 4.358 7.779 6.976 2.199 2.618 4.153 5.329 5.325 8.54 1.172 3.212 1.967 8.328 1.48 10.344-.487 2.016.754.61-1.153 1.629z" fill="#ec5a4d"/><path d="M267.488 42.08c.524-1.2 1.769-1.19 2.87-.889 1.101.3 2.265 1.636 2.585 2.845.32 1.21.168 3.09-.796 3.573-.964.483-1.646-.258-2.56-1.15-.915-.891-2.623-3.178-2.1-4.378z" fill="#fff6e5"/><path d="M247.27 65.483c-1.063 1.582-1.174 4.297-.662 6.315.513 2.018 1.597 3.732 3.477 5.063 1.88 1.332 5.199 2.384 7.413 1.998 2.214-.386 3.894-1.41 4.764-3.316.871-1.907.261-4.76-.715-6.732-.975-1.973-2.962-3.482-4.672-4.425-1.71-.942-3.403-1.51-5.118-1.301-1.716.208-3.423.817-4.487 2.398z" fill="#ed7e74"/><path d="M255.534 45.217c-.824 1.406-1.14 1.973-1.442 3.763-.301 1.79-.45 4.476.224 6.856.675 2.38 1.708 4.308 3.967 6.926 2.259 2.618 7.25 6.252 10.029 7.898 2.779 1.647 4.728 2.276 6.086 2.593 1.358.318 2.248.217 1.747.1-.5-.118-5.404-2.915-5.657-3.16-.253-.246-7.097-5.881-9.292-8.658-2.196-2.777-3.35-5.367-4.223-7.422-.875-2.054-.77-3.691-.825-5.226-.054-1.534-.207-2.213.383-3.684s1.18-2.431 2.68-4.404c-1.944 1.195-2.853 3.012-3.677 4.418z" fill="#bd8f34"/><path d="M275.223 42.06s2.208 2.552 3.08 5.642c1.152 4.08 2.161 9.935 2.098 12.74-.087 3.928-1.335 7.775-2.14 9.338-.804 1.562-2.22 3.754-2.22 3.754l-4.163-1.904s1.138.087 2.358-1.378c1.22-1.466 2.835-4.178 2.835-4.178s1.354-2.863 1.687-4.884c.332-2.021-.388-8.94-.783-11.157-.394-2.217-2.484-7.305-2.752-7.974z" fill="#bd8f34"/><path d="M241.053 74.65c-.087 1.627-.109 2.276.444 4.004.554 1.729 1.653 4.185 3.344 5.99 1.691 1.805 3.493 3.045 6.701 4.335 3.208 1.291 9.31 2.23 12.535 2.42 3.225.188 5.245-.147 6.597-.487 1.353-.34 2.097-.839 1.599-.713-.499.125-6.14-.112-6.477-.214-.338-.102-9.004-1.971-12.228-3.432-3.224-1.46-5.437-3.234-7.156-4.658-1.72-1.424-2.377-2.927-3.13-4.266-.752-1.338-1.199-1.872-1.349-3.45-.15-1.578-.068-2.7.362-5.142-1.18 1.954-1.154 3.985-1.242 5.613z" fill="#ca483d"/><path d="M5.541 97.598c-1.529-1.53-2.89-6.257-3.471-10.415-.58-4.16-1.05-10.281.63-14.203 1.682-3.92 4.59-6.68 7.891-8.205 3.301-1.525 7.703-1.344 10.415-.632 2.712.713 3.925 1.292 5.365 3.472 1.44 2.18 2.014 5.892 1.578 9.153-.436 3.26-2.551 6.604-4.418 9.468s-3.894 5.52-6.628 7.574c-2.733 2.054-7.397 4.3-9.468 4.419-2.07.119-.365.898-1.894-.631z" fill="#3647b0"/><path d="M21.393 67.307c-1.822-.56-4.452.123-6.235 1.199-1.782 1.076-3.108 2.611-3.836 4.796-.729 2.185-.772 5.667.24 7.674 1.01 2.006 2.479 3.317 4.556 3.597 2.077.28 4.63-1.132 6.235-2.638 1.604-1.506 2.472-3.845 2.877-5.755.406-1.91.458-3.695-.24-5.276-.697-1.581-1.774-3.038-3.597-3.597z" fill="#4053cb"/><path d="M20.194 69.465c1.227-.46 2.086.44 2.638 1.439.552 1 .404 2.765-.24 3.837-.643 1.072-2.1 2.273-3.117 1.918-1.018-.354-.962-1.36-.96-2.638.003-1.277.453-4.095 1.68-4.556z" fill="#c8cff9"/><path d="M12.057 64.258c-1.583.39-2.21.557-3.704 1.588-1.493 1.03-3.525 2.795-4.761 4.937-1.237 2.143-1.9 4.227-2.205 7.672-.304 3.444.568 9.556 1.323 12.697.755 3.14 1.662 4.977 2.38 6.172.719 1.195 1.411 1.764 1.147 1.323-.265-.441-1.675-5.908-1.675-6.26 0-.353-.727-9.188-.265-12.698.462-3.51 1.517-6.142 2.38-8.2.865-2.059 2.113-3.124 3.175-4.233 1.063-1.108 1.443-1.69 2.91-2.292 1.466-.602 2.565-.849 5.026-1.146-2.212-.563-4.149.052-5.731.44z" fill="#26358e"/><path d="M28.04 76.18s-.292 3.364-1.9 6.142c-2.124 3.669-5.621 8.472-7.677 10.382-2.879 2.674-6.507 4.46-8.188 4.971-1.682.512-4.24 1.024-4.24 1.024l-1.536-4.314s.73.878 2.632.731c1.9-.146 4.971-.877 4.971-.877s2.998-1.023 4.68-2.193c1.681-1.17 6.14-6.507 7.457-8.335 1.316-1.828 3.51-6.872 3.802-7.53z" fill="#26358e"/><path d="M257.101 62.813s3.134 1.256 5.325 3.602c2.895 3.097 6.477 7.838 7.708 10.359 1.723 3.53 2.38 7.521 2.38 9.279.003 1.757-.25 4.355-.25 4.355l-4.574.217s1.052-.445 1.464-2.306c.411-1.862.603-5.013.603-5.013s-.11-3.165-.741-5.114c-.632-1.949-4.445-7.765-5.812-9.555s-5.558-5.353-6.103-5.824z" fill="#ca483d"/><path d="M291.712 102.7c1.198-1.8 1.601-6.703 1.35-10.894-.251-4.192-.998-10.287-3.42-13.8-2.422-3.512-5.817-5.644-9.354-6.488-3.537-.844-7.816.202-10.335 1.436-2.518 1.233-3.593 2.04-4.575 4.461-.981 2.422-.812 6.174.258 9.284 1.07 3.11 3.804 5.971 6.2 8.411 2.395 2.44 4.906 4.645 7.99 6.119 3.086 1.474 8.101 2.756 10.154 2.464 2.054-.292.535.808 1.732-.992z" fill="#3647b0"/><path d="M271.928 73.53c1.676-.908 4.39-.758 6.349-.054 1.96.703 3.562 1.946 4.707 3.945 1.145 1.998 1.874 5.403 1.279 7.57-.596 2.167-1.777 3.741-3.758 4.425-1.98.684-4.762-.196-6.633-1.356-1.87-1.16-3.182-3.282-3.956-5.075-.774-1.793-1.177-3.532-.805-5.22.372-1.687 1.14-3.328 2.817-4.235z" fill="#4053cb"/><path d="M279.232 80.93c1.298-.176 1.629-1.376 1.64-2.518.013-1.141-.954-2.626-2.03-3.264-1.075-.64-2.926-1.006-3.654-.212-.728.795-.202 1.654.406 2.778.608 1.123 2.34 3.392 3.638 3.216z" fill="#c8cff9"/><path d="M278.75 71.301c1.628.07 2.276.11 3.944.826 1.667.716 4.007 2.045 5.641 3.902 1.635 1.856 2.697 3.768 3.674 7.085.978 3.317 1.329 9.481 1.208 12.71-.12 3.227-.648 5.206-1.117 6.52-.468 1.313-1.035 2.007-.863 1.522.173-.484.478-6.122.408-6.467-.07-.346-1.1-9.15-2.245-12.5-1.145-3.35-2.698-5.723-3.951-7.57-1.253-1.848-2.686-2.647-3.947-3.523-1.26-.877-1.748-1.374-3.305-1.674-1.556-.3-2.682-.326-5.153-.133 2.058-.987 4.078-.767 5.706-.698z" fill="#26358e"/><path d="M265.431 86.142s.95 3.24 3.075 5.645c2.806 3.178 7.181 7.198 9.573 8.664 3.35 2.054 7.26 3.09 9.009 3.26 1.749.17 4.359.166 4.359.166l.654-4.531s-.544 1.004-2.436 1.236c-1.893.231-5.047.12-5.047.12s-3.14-.412-5.02-1.227c-1.88-.816-7.304-5.168-8.955-6.7-1.65-1.533-4.795-6.046-5.212-6.633z" fill="#26358e"/><path d="M250.964 66.687c.08.76.743 1.765 1.418 2.41.674.644 1.447 1.079 2.364 1.236.917.158 2.204-.036 2.783-.56.579-.525.83-1.19.608-2.033-.223-.844-1.142-1.775-1.947-2.322-.805-.548-1.8-.751-2.566-.797-.766-.045-1.43.042-1.902.416-.471.373-.838.89-.758 1.65z" fill="#ffc5c0"/></g></svg>